<svg width="50" height="51" viewBox="0 0 50 51" fill="none" xmlns="http://www.w3.org/2000/svg">
<g clip-path="url(#clip0_402_726)">
<path d="M25 50.7273C38.8071 50.7273 50 39.5344 50 25.7273C50 11.9201 38.8071 0.727264 25 0.727264C11.1929 0.727264 0 11.9201 0 25.7273C0 39.5344 11.1929 50.7273 25 50.7273Z" fill="#F0F0F0"/>
<path d="M19.5654 22.4664H49.7884C48.1905 10.2001 37.7019 0.727264 25.0001 0.727264C23.1334 0.727264 21.3153 0.933612 19.5653 1.3215V22.4664H19.5654Z" fill="#D80027"/>
<path d="M13.0435 22.4663V3.76701C6.17895 7.51252 1.2647 14.3827 0.21167 22.4664H13.0435V22.4663Z" fill="#D80027"/>
<path d="M13.0434 28.9881H0.21167C1.2647 37.0718 6.17895 43.942 13.0435 47.6874L13.0434 28.9881Z" fill="#D80027"/>
<path d="M19.5653 28.9882V50.133C21.3153 50.5209 23.1334 50.7273 25.0001 50.7273C37.7019 50.7273 48.1905 41.2544 49.7884 28.9881H19.5653V28.9882Z" fill="#D80027"/>
</g>
<defs>
<clipPath id="clip0_402_726">
<rect width="50" height="50" fill="white" transform="translate(0 0.727264)"/>
</clipPath>
</defs>
</svg>
