<svg width="50" height="51" viewBox="0 0 50 51" fill="none" xmlns="http://www.w3.org/2000/svg">
<g clip-path="url(#clip0_402_726)">
<path d="M25 50.7273C38.8071 50.7273 50 39.5344 50 25.7273C50 11.9201 38.8071 0.727264 25 0.727264C11.1929 0.727264 0 11.9201 0 25.7273C0 39.5344 11.1929 50.7273 25 50.7273Z" fill="#6DA544"/>
<path d="M14.1305 30.6186C14.1305 32.4195 15.5905 33.8794 17.3913 33.8794H27.1739C27.1739 35.3802 28.3906 36.5968 29.8913 36.5968H33.1522C34.653 36.5968 35.8696 35.3802 35.8696 33.8794V30.6186H14.1305Z" fill="#F0F0F0"/>
<path d="M36.1413 14.8577V22.4664C36.1413 23.6651 35.1661 24.6403 33.9674 24.6403V27.9012C36.9642 27.9012 39.4022 25.4631 39.4022 22.4664V14.8577H36.1413Z" fill="#F0F0F0"/>
<path d="M12.7718 22.4664C12.7718 23.6651 11.7966 24.6403 10.5979 24.6403V27.9012C13.5947 27.9012 16.0327 25.4631 16.0327 22.4664V14.8577H12.7718V22.4664Z" fill="#F0F0F0"/>
<path d="M31.25 14.8577H34.5108V22.4664H31.25V14.8577Z" fill="#F0F0F0"/>
<path d="M26.3587 19.2055C26.3587 19.5052 26.1148 19.7489 25.8152 19.7489C25.5156 19.7489 25.2718 19.5051 25.2718 19.2055V14.8576H22.0109V19.2055C22.0109 19.5052 21.7671 19.7489 21.4675 19.7489C21.1679 19.7489 20.924 19.5051 20.924 19.2055V14.8576H17.6631V19.2055C17.6631 21.3032 19.3697 23.0099 21.4675 23.0099C22.2754 23.0099 23.0246 22.756 23.6414 22.3247C24.2581 22.7559 25.0074 23.0099 25.8153 23.0099C25.978 23.0099 26.138 22.9985 26.2953 22.9784C26.0643 23.9305 25.2068 24.6403 24.1849 24.6403V27.9011C27.1816 27.9011 29.6196 25.463 29.6196 22.4663V19.2055V14.8576H26.3588V19.2055H26.3587Z" fill="#F0F0F0"/>
<path d="M17.6631 24.6404H22.5544V27.9012H17.6631V24.6404Z" fill="#F0F0F0"/>
</g>
<defs>
<clipPath id="clip0_402_726">
<rect width="50" height="50" fill="white" transform="translate(0 0.727264)"/>
</clipPath>
</defs>
</svg>
