<svg width="50" height="51" viewBox="0 0 50 51" fill="none" xmlns="http://www.w3.org/2000/svg">
<g clip-path="url(#clip0_402_731)">
<path d="M25 50.7273C38.8071 50.7273 50 39.5344 50 25.7273C50 11.9201 38.8071 0.727264 25 0.727264C11.1929 0.727264 0 11.9201 0 25.7273C0 39.5344 11.1929 50.7273 25 50.7273Z" fill="#F0F0F0"/>
<path d="M25 0.727264C15.0885 0.727264 6.52446 6.49533 2.48071 14.8577H47.5193C43.4756 6.49533 34.9115 0.727264 25 0.727264Z" fill="#338AF3"/>
<path d="M25 50.7273C34.9115 50.7273 43.4756 44.9592 47.5194 36.5968H2.48071C6.52446 44.9592 15.0885 50.7273 25 50.7273Z" fill="#338AF3"/>
<path d="M32.4722 25.7273L29.4189 27.1635L31.0448 30.1204L27.7294 29.4861L27.3093 32.8354L25 30.3721L22.6906 32.8354L22.2706 29.4861L18.9552 30.1203L20.581 27.1634L17.5278 25.7273L20.5811 24.291L18.9552 21.3342L22.2705 21.9684L22.6907 18.6192L25 21.0824L27.3094 18.6192L27.7294 21.9684L31.0449 21.3342L29.419 24.2911L32.4722 25.7273Z" fill="#FFDA44"/>
</g>
<defs>
<clipPath id="clip0_402_731">
<rect width="50" height="50" fill="white" transform="translate(0 0.727264)"/>
</clipPath>
</defs>
</svg>
