<svg width="50" height="51" viewBox="0 0 50 51" fill="none" xmlns="http://www.w3.org/2000/svg">
<g clip-path="url(#clip0_402_726)">
<path d="M50 25.7273C50 39.5343 38.807 50.7273 25 50.7273C11.193 50.7273 0 39.5343 0 25.7273C0 25.7331 25 0.730096 25 0.727264C38.807 0.727264 50 11.9202 50 25.7273Z" fill="#0052B4"/>
<path d="M25 0.727264C24.9987 0.727264 24.9972 0.727362 24.9958 0.727362L25 0.727264Z" fill="#F0F0F0"/>
<path d="M24.9331 25.7273H25C25 25.7046 25 25.6829 25 25.6604C24.9777 25.6827 24.9555 25.705 24.9331 25.7273Z" fill="#F0F0F0"/>
<path d="M25 13.7708C25 9.37189 25 6.48937 25 0.727356H24.9958C11.1906 0.729602 0 11.9215 0 25.7273H13.0435V18.3823L20.3884 25.7273H24.9332C24.9556 25.705 24.9778 25.6827 25.0001 25.6604C25.0001 23.9761 25.0001 22.4733 25.0001 21.1158L17.6551 13.7708H25Z" fill="#F0F0F0"/>
<path d="M12.648 3.9881C8.73791 6.21456 5.48733 9.46515 3.26086 13.3752V25.7273H9.78264V10.51V10.5099H25C25 8.45294 25 6.49337 25 3.9881H12.648Z" fill="#D80027"/>
<path d="M25 22.6529L16.1179 13.7709H13.0436C13.0436 13.7708 13.0436 13.7709 13.0436 13.7709L24.9999 25.7273H25C25 25.7273 25 23.6076 25 22.6529Z" fill="#D80027"/>
<path d="M15.0777 30.0751L16.4498 32.9441L19.5481 32.2279L18.1606 35.0895L20.6522 37.0654L17.55 37.7646L17.5586 40.9446L15.0777 38.9551L12.5968 40.9446L12.6055 37.7646L9.50317 37.0654L11.9949 35.0895L10.6072 32.2279L13.7057 32.9441L15.0777 30.0751Z" fill="#F0F0F0"/>
<path d="M37.4302 35.5099L38.1162 36.9444L39.6654 36.5863L38.9716 38.017L40.2175 39.005L38.6663 39.3546L38.6706 40.9446L37.4302 39.9498L36.1897 40.9446L36.194 39.3546L34.6429 39.005L35.8887 38.017L35.195 36.5863L36.7441 36.9444L37.4302 35.5099Z" fill="#F0F0F0"/>
<path d="M31.0482 20.2925L31.7341 21.7271L33.2833 21.3689L32.5896 22.7996L33.8354 23.7876L32.2843 24.1372L32.2885 25.7273L31.0482 24.7325L29.8077 25.7273L29.8119 24.1372L28.2609 23.7876L29.5067 22.7996L28.8129 21.3689L30.3621 21.7271L31.0482 20.2925Z" fill="#F0F0F0"/>
<path d="M37.4302 11.5968L38.1162 13.0314L39.6654 12.6733L38.9717 14.104L40.2174 15.0919L38.6663 15.4416L38.6706 17.0317L37.4302 16.0368L36.1897 17.0317L36.194 15.4416L34.6429 15.0919L35.8886 14.104L35.195 12.6733L36.7441 13.0314L37.4302 11.5968Z" fill="#F0F0F0"/>
<path d="M43.0047 18.1186L43.6907 19.5531L45.2399 19.1949L44.5461 20.6257L45.7919 21.6137L44.2407 21.9634L44.245 23.5533L43.0047 22.5586L41.7643 23.5533L41.7685 21.9634L40.2174 21.6137L41.4632 20.6257L40.7695 19.1949L42.3186 19.5531L43.0047 18.1186Z" fill="#F0F0F0"/>
<path d="M39.0186 25.7273L39.5582 27.388H41.3045L39.8917 28.4145L40.4314 30.0751L39.0186 29.0487L37.6059 30.0751L38.1455 28.4145L36.7328 27.388H38.479L39.0186 25.7273Z" fill="#F0F0F0"/>
</g>
<defs>
<clipPath id="clip0_402_726">
<rect width="50" height="50" fill="white" transform="translate(0 0.727264)"/>
</clipPath>
</defs>
</svg>
